<?xml version="1.0" standalone="no"?>
<!DOCTYPE svg PUBLIC "-//W3C//DTD SVG 20010904//EN"
 "http://www.w3.org/TR/2001/REC-SVG-20010904/DTD/svg10.dtd">
<svg version="1.0" xmlns="http://www.w3.org/2000/svg"
 width="1668.000000pt" height="1668.000000pt" viewBox="0 0 1668.000000 1668.000000"
 preserveAspectRatio="xMidYMid meet">
<metadata>
Created by potrace 1.14, written by Peter Selinger 2001-2017
</metadata>
<g transform="translate(0.000000,1668.000000) scale(0.100000,-0.100000)"
fill="#000000" stroke="none">
<path d="M10820 9829 c0 -23 4 -38 10 -34 5 3 7 12 4 20 -3 7 -1 23 6 34 9 17
8 21 -5 21 -11 0 -15 -11 -15 -41z"/>
<path d="M10877 9801 c-4 -17 -3 -21 5 -13 5 5 8 16 6 23 -3 8 -7 3 -11 -10z"/>
<path d="M10892 9774 c-7 -8 -8 -14 -3 -14 10 0 25 19 20 25 -2 1 -10 -3 -17
-11z"/>
<path d="M10811 9724 c0 -11 3 -14 6 -6 3 7 2 16 -1 19 -3 4 -6 -2 -5 -13z"/>
<path d="M10910 9686 c0 -2 7 -7 16 -10 8 -3 12 -2 9 4 -6 10 -25 14 -25 6z"/>
<path d="M10954 9665 c4 -16 12 -34 17 -40 5 -5 4 6 -2 25 -15 45 -24 54 -15
15z"/>
<path d="M11174 7775 c-10 -14 -24 -25 -31 -25 -6 0 -18 -6 -25 -12 -28 -27
-87 -68 -97 -68 -6 0 -11 -4 -11 -10 0 -5 -11 -12 -25 -16 -14 -3 -25 -10 -25
-15 0 -5 -6 -9 -14 -9 -8 0 -21 -6 -28 -13 -12 -11 -184 -98 -263 -132 -16 -7
-46 -20 -67 -29 -20 -9 -41 -16 -47 -16 -6 0 -20 -4 -31 -10 -11 -6 -28 -14
-39 -19 -10 -5 -35 -13 -55 -16 -20 -4 -38 -11 -41 -15 -3 -5 -23 -11 -45 -15
-22 -4 -42 -11 -46 -16 -3 -5 -16 -9 -30 -9 -13 0 -24 -4 -24 -9 0 -5 -20 -12
-45 -15 -24 -4 -47 -11 -50 -17 -4 -5 -17 -9 -30 -9 -13 0 -26 -4 -29 -9 -4
-5 -24 -12 -46 -16 -22 -4 -40 -11 -40 -16 0 -5 -9 -9 -21 -9 -12 0 -35 -6
-52 -14 -18 -7 -48 -21 -69 -30 -20 -9 -41 -16 -46 -16 -6 0 -27 -9 -49 -19
-130 -64 -166 -81 -178 -81 -7 0 -15 -3 -17 -7 -3 -7 -92 -57 -155 -87 -13 -6
-23 -14 -23 -18 0 -5 -6 -8 -14 -8 -8 0 -21 -6 -28 -12 -16 -15 -47 -35 -68
-45 -8 -4 -20 -12 -27 -17 -6 -6 -28 -22 -48 -36 -21 -14 -55 -42 -77 -62 -22
-21 -42 -38 -44 -38 -19 0 -194 -181 -187 -193 3 -5 1 -7 -5 -3 -6 3 -21 -8
-33 -25 -12 -17 -35 -45 -51 -61 -15 -16 -28 -32 -28 -36 0 -5 -8 -17 -18 -28
-48 -52 -182 -289 -182 -321 0 -7 -4 -13 -10 -13 -5 0 -12 -16 -16 -35 -3 -19
-10 -35 -15 -35 -5 0 -9 -10 -9 -23 0 -13 -4 -27 -9 -32 -12 -14 -51 -144 -51
-171 0 -13 -4 -25 -9 -28 -5 -3 -12 -23 -15 -43 -10 -59 -36 -243 -41 -292
l-5 -43 270 4 c188 3 273 7 282 16 9 9 3 10 -24 6 -23 -4 -39 -1 -49 9 -9 8
-24 17 -35 20 -10 3 4 4 31 2 44 -3 48 -2 31 10 -20 15 -14 35 12 36 11 0 12
3 5 6 -14 5 -16 34 -7 71 4 14 12 21 20 18 8 -3 11 0 7 9 -3 8 2 18 11 21 9 3
16 16 17 28 0 11 3 15 6 9 8 -22 22 -14 25 15 2 16 12 31 24 36 27 12 50 46
31 46 -9 0 -12 11 -9 33 3 23 9 33 20 33 10 -1 17 4 17 9 0 6 -3 9 -8 7 -4 -1
-2 7 5 18 7 11 16 20 20 20 5 0 8 5 8 11 0 20 27 38 49 32 20 -5 21 -3 15 21
-5 22 -3 26 15 26 12 0 21 6 21 15 0 8 6 15 13 15 8 0 7 3 -3 10 -28 18 0 22
39 6 l41 -16 6 38 c3 21 15 49 26 63 l20 24 -6 -25 c-5 -25 -5 -25 12 -5 9 11
30 26 45 32 15 7 32 23 37 35 5 13 9 17 9 11 1 -17 31 -17 31 0 0 18 41 41 68
38 14 -2 22 3 22 13 0 15 15 20 52 17 12 -2 15 4 11 18 -3 12 -10 18 -16 14
-6 -3 -7 -1 -3 5 4 7 18 12 31 12 18 0 22 -4 18 -21 -5 -19 -3 -20 33 -13 22
5 49 8 62 9 12 0 22 5 22 12 0 7 7 10 15 7 8 -4 15 -1 15 5 0 6 -9 11 -20 11
-11 0 -20 4 -20 9 0 5 14 8 30 6 18 -3 28 0 25 5 -4 6 6 15 22 21 15 5 49 21
75 34 58 30 72 31 98 5 11 -11 20 -16 20 -11 0 5 -7 17 -16 26 -15 14 -14 18
9 40 15 16 31 23 41 19 9 -3 16 -1 16 5 0 5 9 15 20 21 16 8 20 8 20 -4 0 -10
-6 -13 -15 -10 -15 6 -22 -11 -7 -19 4 -2 2 -3 -4 -1 -6 1 -11 -11 -11 -27 0
-33 13 -38 22 -9 6 20 25 28 25 11 0 -5 6 -11 14 -14 10 -4 12 0 8 15 -4 18
-2 20 21 14 20 -5 27 -3 27 8 0 19 -17 30 -22 14 -3 -7 -7 -5 -11 6 -4 10 -3
15 3 11 6 -3 10 0 10 7 0 7 5 5 11 -6 8 -13 13 -15 19 -6 5 9 9 9 14 1 4 -6 2
-11 -3 -11 -6 0 -11 -5 -11 -11 0 -8 5 -8 15 1 8 7 15 19 15 27 0 9 6 13 14
10 10 -4 13 -1 10 8 -3 8 4 19 18 26 21 11 22 11 9 -5 -12 -14 -12 -16 3 -10
9 3 16 12 16 20 0 13 13 19 35 14 6 -1 -1 11 -15 27 -17 19 -18 22 -4 10 23
-19 44 -22 44 -6 0 5 5 7 10 4 6 -3 10 0 10 8 0 8 8 21 17 28 11 10 14 10 9 2
-12 -21 -1 -15 37 20 19 17 61 55 92 82 31 28 78 72 104 99 25 27 63 67 83 89
21 21 47 54 59 73 11 19 24 34 28 34 4 0 16 16 27 35 10 19 21 35 25 35 3 0
14 17 25 37 10 21 26 45 34 55 8 9 26 38 40 65 14 26 27 50 30 53 5 5 78 153
104 212 9 20 16 43 16 51 0 9 5 19 10 22 6 3 10 16 10 29 0 12 4 26 8 32 5 5
17 38 26 74 10 36 22 75 27 88 19 48 3 57 -27 17z m-897 -1271 c-3 -3 -12 -4
-19 -1 -8 3 -5 6 6 6 11 1 17 -2 13 -5z m-57 -49 c0 -10 -16 -4 -40 16 l-25
20 33 -16 c17 -8 32 -18 32 -20z m25 25 c3 -5 1 -10 -4 -10 -6 0 -11 5 -11 10
0 6 2 10 4 10 3 0 8 -4 11 -10z m-969 -477 c-10 -10 -19 5 -10 18 6 11 8 11
12 0 2 -7 1 -15 -2 -18z m-401 -552 c-3 -6 -16 -11 -28 -11 -21 1 -21 1 3 15
27 14 36 13 25 -4z"/>
<path d="M10050 6381 c-7 -14 -6 -21 3 -24 8 -4 8 -6 -2 -6 -9 -1 -6 -8 9 -21
28 -24 31 -25 24 -5 -4 8 -9 15 -13 15 -4 0 -6 14 -5 30 2 35 -1 37 -16 11z"/>
<path d="M10165 6380 c3 -5 8 -10 11 -10 2 0 4 5 4 10 0 6 -5 10 -11 10 -5 0
-7 -4 -4 -10z"/>
<path d="M10106 6344 c-5 -14 -4 -15 9 -4 17 14 19 20 6 20 -5 0 -12 -7 -15
-16z"/>
<path d="M10040 6302 c0 -10 -6 -24 -12 -31 -11 -10 -10 -11 5 -6 15 6 26 55
12 55 -3 0 -5 -8 -5 -18z"/>
<path d="M9947 6247 c-3 -7 3 -13 13 -13 10 0 16 6 13 13 -3 7 -9 13 -13 13
-4 0 -10 -6 -13 -13z"/>
<path d="M9813 6146 c-16 -19 -4 -29 13 -11 8 7 14 16 14 19 0 10 -15 6 -27
-8z"/>
<path d="M8120 5455 c0 -5 5 -17 10 -25 5 -8 10 -10 10 -5 0 6 -5 17 -10 25
-5 8 -10 11 -10 5z"/>
<path d="M8164 5368 c-3 -4 21 -8 52 -8 32 0 54 3 51 6 -10 10 -97 12 -103 2z"/>
<path d="M7430 5291 c0 -80 17 -141 40 -141 15 0 33 -75 26 -105 -4 -15 -20
-41 -37 -57 -16 -16 -29 -33 -29 -37 0 -4 15 -22 33 -40 27 -29 32 -41 31 -80
0 -49 -29 -111 -51 -111 -20 0 -15 -25 8 -46 12 -10 30 -36 41 -57 19 -39 19
-39 0 -80 -11 -23 -29 -51 -41 -61 -26 -24 -26 -26 2 -56 12 -14 30 -38 40
-53 17 -27 17 -30 1 -73 -9 -24 -28 -55 -42 -69 l-25 -25 29 -26 c16 -14 68
-63 116 -110 48 -46 94 -84 102 -84 9 0 16 -4 16 -10 0 -5 7 -10 16 -10 15 0
76 -43 126 -89 19 -18 27 -24 78 -62 44 -33 140 -49 140 -23 0 10 5 14 16 10
9 -3 12 -2 8 5 -3 6 -8 68 -10 139 -4 115 -2 129 13 136 27 13 814 17 826 5 8
-8 7 -11 -2 -11 -7 0 -9 -4 -6 -10 3 -5 9 -47 13 -94 7 -77 6 -85 -13 -101
-20 -17 -19 -17 13 -11 39 7 41 2 5 -19 -23 -13 -24 -15 -5 -10 15 5 22 2 22
-8 0 -10 -7 -13 -20 -10 -26 7 -26 -3 1 -17 13 -7 25 -8 32 -2 7 5 27 13 45
17 17 3 32 10 32 14 0 4 13 15 30 24 16 10 78 65 137 123 59 58 121 115 136
127 16 12 51 43 78 69 l49 47 -35 34 c-30 29 -35 40 -35 81 0 25 5 46 10 46 6
0 10 5 10 12 0 7 12 24 26 39 l26 27 -26 29 c-14 15 -26 33 -26 40 0 7 -4 13
-10 13 -5 0 -10 18 -10 40 0 22 5 40 10 40 6 0 10 7 10 15 0 8 13 28 30 45
l29 30 -22 22 c-75 77 -76 124 -4 200 22 24 22 40 -3 58 -24 17 -50 65 -50 92
0 21 26 65 53 90 15 14 17 30 15 110 l-3 93 -249 -3 c-187 -1 -252 -5 -258
-15 -4 -6 -7 -44 -6 -83 1 -39 -2 -76 -7 -83 -4 -8 -3 -16 4 -21 7 -4 -34 -10
-91 -14 -134 -8 -690 -7 -748 2 l-45 7 2 40 c2 22 3 63 4 92 1 29 5 52 8 51 3
0 15 1 26 2 15 1 13 4 -10 11 -16 5 -168 12 -337 16 l-308 6 0 -82z m1522
-261 c31 -11 35 -16 29 -33 -16 -42 -52 -45 -522 -46 -371 -1 -449 1 -458 13
-17 21 30 54 87 61 26 3 72 9 102 14 90 14 718 7 762 -9z m-75 -180 c75 0 83
-2 83 -19 0 -11 5 -23 10 -26 6 -4 8 -11 5 -16 -4 -5 2 -12 12 -17 27 -11
-399 -18 -757 -12 -204 3 -301 8 -276 13 28 6 36 11 26 17 -17 10 -16 12 30
36 30 16 68 20 245 25 116 4 284 5 374 3 90 -2 202 -4 248 -4z m72 -204 c23
-8 37 -21 42 -38 l6 -25 -121 -9 c-66 -5 -299 -9 -517 -9 -357 0 -397 2 -412
17 -22 22 -21 28 4 28 11 0 18 4 14 9 -3 6 16 13 42 17 27 3 55 10 63 15 25
14 839 10 879 -5z m56 -176 c11 -5 14 -9 8 -9 -7 -1 -13 -6 -13 -12 0 -6 -8
-18 -17 -27 -38 -38 -83 -42 -560 -42 -448 0 -462 1 -468 19 -3 11 0 29 7 40
11 19 23 21 108 21 111 0 323 11 329 16 9 8 587 2 606 -6z m-7 -217 c58 -59
25 -63 -557 -63 l-505 0 23 21 c16 15 20 24 11 29 -38 23 222 38 665 36 339
-1 340 -1 363 -23z"/>
<path d="M8066 3773 c6 -4 13 -46 16 -92 5 -79 7 -86 34 -108 16 -12 37 -23
47 -23 9 0 17 -4 17 -9 0 -5 18 -12 40 -16 22 -4 42 -11 46 -16 3 -5 16 -9 30
-9 13 0 24 -4 24 -9 0 -5 63 -10 140 -10 91 -1 140 2 140 9 0 5 11 10 25 10
14 0 25 4 25 9 0 5 18 11 40 15 22 3 40 10 40 14 0 4 19 16 43 26 49 21 57 30
57 71 0 17 7 51 15 78 14 46 14 47 -8 47 -210 -2 -747 8 -762 14 -11 4 -15 4
-9 -1z"/>
<path d="M8610 3475 c0 -7 30 -13 34 -7 3 4 -4 9 -15 9 -10 1 -19 0 -19 -2z"/>
<path d="M8708 3473 c7 -3 16 -2 19 1 4 3 -2 6 -13 5 -11 0 -14 -3 -6 -6z"/>
<path d="M8388 3463 c6 -2 18 -2 25 0 6 3 1 5 -13 5 -14 0 -19 -2 -12 -5z"/>
<path d="M8478 3457 c36 -7 59 -7 75 1 18 9 7 11 -53 10 l-75 -1 53 -10z"/>
<path d="M7240 2366 c0 -9 5 -16 10 -16 6 0 10 -46 10 -118 l0 -118 44 -2 c61
-2 81 22 81 98 0 73 -23 105 -72 97 -31 -5 -31 -5 -30 31 2 31 -1 37 -20 40
-16 2 -23 -2 -23 -12z m110 -105 c30 -58 -8 -157 -46 -119 -17 16 -23 105 -10
127 11 18 44 13 56 -8z"/>
<path d="M8025 2372 c-10 -10 -4 -20 15 -25 18 -5 20 -14 20 -101 0 -85 -2
-96 -20 -106 -41 -22 -20 -31 68 -28 l87 3 3 53 c3 59 -15 73 -20 15 -3 -37
-4 -38 -45 -41 l-43 -3 0 51 c0 44 3 51 18 48 9 -2 18 -13 20 -26 7 -48 22
-18 22 44 0 48 -3 64 -12 61 -7 -2 -12 -10 -10 -17 3 -14 -16 -40 -29 -40 -5
0 -9 21 -9 46 l0 45 38 -3 c35 -3 37 -5 40 -40 2 -26 8 -38 18 -38 12 0 14 11
12 53 l-3 52 -83 1 c-45 0 -84 -2 -87 -4z"/>
<path d="M8945 2361 c-8 -15 3 -31 21 -31 9 0 14 7 12 17 -4 20 -24 28 -33 14z"/>
<path d="M8853 2330 c-10 -11 -25 -20 -35 -20 -21 0 -50 -42 -47 -67 1 -10 -1
-26 -6 -36 -4 -10 -5 -31 -2 -47 4 -16 2 -32 -3 -35 -18 -11 -10 -54 12 -69
51 -36 128 -7 128 48 0 31 -23 49 -73 55 -22 3 -42 12 -45 20 -3 10 2 12 22 7
56 -14 94 35 70 91 -7 20 -9 35 -3 38 5 4 9 -1 9 -9 0 -9 7 -16 15 -16 22 0
18 38 -5 50 -16 8 -23 7 -37 -10z m2 -71 c8 -26 -16 -54 -39 -46 -16 6 -22 48
-9 60 14 14 42 6 48 -14z m10 -159 c0 -22 -5 -25 -38 -28 -39 -3 -55 13 -43
44 4 11 17 14 43 12 33 -3 38 -6 38 -28z"/>
<path d="M6071 2284 c-26 -33 -29 -118 -5 -152 21 -30 77 -30 98 0 20 28 20
48 1 48 -8 0 -15 -7 -15 -15 0 -8 -8 -19 -19 -24 -22 -12 -46 4 -54 36 -4 20
-1 22 47 25 46 3 51 5 54 29 4 33 -32 79 -63 79 -14 0 -32 -11 -44 -26z m73
-20 c11 -29 6 -34 -29 -34 -19 0 -35 4 -35 9 0 24 14 41 35 41 13 0 26 -7 29
-16z"/>
<path d="M6216 2302 c-11 -10 -6 -22 9 -22 12 0 15 -14 15 -70 0 -54 -4 -72
-15 -76 -30 -12 -14 -24 31 -24 32 0 44 4 41 13 -2 6 -10 11 -16 9 -8 -2 -11
19 -9 70 3 68 5 73 26 76 22 3 23 1 17 -27 -5 -24 -3 -31 8 -31 28 0 36 50 12
73 -14 14 -107 21 -119 9z"/>
<path d="M6365 2302 c-10 -10 -5 -22 10 -22 12 0 15 -14 15 -70 0 -54 -4 -72
-15 -76 -28 -11 -15 -24 25 -24 38 0 52 12 30 25 -12 7 -13 115 -1 133 4 8 19
12 32 10 22 -3 24 -8 27 -67 2 -36 -2 -69 -7 -74 -20 -20 -11 -27 29 -27 40 0
53 13 25 24 -11 4 -15 22 -15 68 0 90 -14 106 -90 105 -33 0 -62 -2 -65 -5z"/>
<path d="M6591 2284 c-26 -33 -29 -118 -5 -152 21 -30 77 -30 98 0 20 28 20
48 1 48 -8 0 -15 -7 -15 -15 0 -8 -10 -19 -21 -26 -24 -13 -42 0 -53 38 -7 20
-3 22 46 25 48 3 53 5 56 29 4 33 -32 79 -63 79 -14 0 -32 -11 -44 -26z m73
-20 c11 -29 6 -34 -29 -34 -19 0 -35 4 -35 9 0 24 14 41 35 41 13 0 26 -7 29
-16z"/>
<path d="M6725 2301 c-3 -6 1 -13 9 -18 9 -5 15 -32 18 -81 2 -49 8 -76 18
-82 18 -11 140 -12 140 0 0 4 -7 10 -15 14 -12 4 -15 24 -15 91 0 83 0 85 -24
85 -29 0 -44 -18 -22 -26 22 -9 22 -116 0 -138 -36 -37 -54 -9 -54 86 0 76 -1
78 -24 78 -14 0 -27 -4 -31 -9z"/>
<path d="M6951 2284 c-26 -33 -29 -118 -5 -152 21 -30 77 -30 98 0 20 28 20
48 1 48 -8 0 -15 -7 -15 -15 0 -8 -8 -19 -19 -24 -22 -12 -46 3 -55 36 -7 20
-3 22 46 25 48 3 53 5 56 29 4 33 -32 79 -63 79 -14 0 -32 -11 -44 -26z m73
-20 c11 -29 6 -34 -29 -34 -19 0 -35 4 -35 9 0 24 14 41 35 41 13 0 26 -7 29
-16z"/>
<path d="M7096 2302 c-11 -10 -6 -22 9 -22 12 0 15 -14 15 -70 0 -54 -4 -72
-15 -76 -30 -12 -14 -24 31 -24 32 0 44 4 41 13 -2 6 -10 11 -16 9 -8 -2 -11
19 -9 70 3 68 5 73 26 76 22 3 23 1 17 -27 -5 -24 -3 -31 9 -31 9 0 18 11 22
25 10 40 -17 63 -76 63 -27 0 -51 -3 -54 -6z"/>
<path d="M7444 2285 c-13 -20 -14 -28 -4 -40 15 -18 30 -11 30 15 0 27 19 35
38 16 22 -22 6 -47 -37 -58 -41 -11 -58 -50 -37 -84 14 -20 24 -22 80 -22 61
0 64 2 69 26 3 14 3 32 0 39 -8 20 -23 5 -25 -25 0 -15 -4 7 -7 49 -4 43 -13
84 -20 93 -21 25 -68 20 -87 -9z m76 -103 c0 -31 -24 -55 -48 -48 -26 9 -29
41 -4 55 27 16 52 13 52 -7z"/>
<path d="M7606 2302 c-11 -10 -6 -22 9 -22 12 0 15 -14 15 -70 0 -54 -4 -72
-15 -76 -30 -12 -14 -24 30 -24 45 0 58 12 29 28 -12 6 -14 23 -12 73 3 59 5
64 26 67 22 3 23 1 17 -27 -5 -24 -3 -31 9 -31 9 0 18 11 22 25 10 40 -17 63
-76 63 -27 0 -51 -3 -54 -6z"/>
<path d="M7781 2284 c-26 -33 -29 -118 -5 -152 21 -30 77 -30 98 0 20 28 20
48 1 48 -8 0 -15 -7 -15 -15 0 -8 -9 -19 -21 -25 -25 -14 -45 -1 -51 35 -5 23
-2 24 46 27 46 3 51 5 54 29 4 33 -32 79 -63 79 -14 0 -32 -11 -44 -26z m73
-20 c11 -29 6 -34 -29 -34 -19 0 -35 4 -35 9 0 24 14 41 35 41 13 0 26 -7 29
-16z"/>
<path d="M8235 2302 c-10 -10 -5 -22 10 -22 12 0 15 -14 15 -70 0 -54 -4 -72
-15 -76 -28 -11 -15 -24 25 -24 38 0 52 12 30 25 -12 7 -13 115 -1 133 4 8 19
12 32 10 22 -3 24 -8 27 -67 2 -36 -2 -69 -7 -74 -20 -20 -11 -27 29 -27 40 0
53 13 25 24 -11 4 -15 22 -15 68 0 90 -14 106 -90 105 -33 0 -62 -2 -65 -5z"/>
<path d="M8471 2284 c-26 -33 -29 -118 -5 -152 21 -30 77 -30 98 0 20 28 20
48 1 48 -8 0 -15 -7 -15 -15 0 -8 -8 -19 -19 -24 -22 -12 -48 4 -53 34 -3 17
4 21 47 25 45 4 50 8 53 31 4 33 -32 79 -63 79 -14 0 -32 -11 -44 -26z m73
-20 c11 -29 6 -34 -29 -34 -19 0 -35 4 -35 9 0 24 14 41 35 41 13 0 26 -7 29
-16z"/>
<path d="M8606 2302 c-11 -10 -6 -22 9 -22 12 0 15 -14 15 -69 0 -52 -4 -70
-15 -75 -30 -11 -14 -26 30 -26 45 0 58 12 29 28 -12 6 -14 23 -12 73 3 59 5
64 26 67 22 3 23 1 17 -27 -5 -24 -3 -31 8 -31 28 0 36 50 12 73 -14 14 -107
21 -119 9z"/>
<path d="M8927 2304 c-12 -12 -8 -24 8 -24 12 0 15 -14 15 -70 0 -54 -4 -72
-15 -76 -28 -11 -15 -24 25 -24 40 0 49 7 30 26 -5 5 -10 45 -12 89 -3 72 -5
80 -23 83 -12 2 -24 0 -28 -4z"/>
<path d="M9051 2284 c-26 -33 -29 -118 -5 -152 21 -30 77 -30 98 0 20 28 20
48 1 48 -8 0 -15 -7 -15 -15 0 -8 -10 -19 -21 -26 -24 -13 -45 2 -51 36 -3 17
4 21 47 25 45 4 50 8 53 31 4 33 -32 79 -63 79 -14 0 -32 -11 -44 -26z m73
-20 c11 -29 6 -34 -29 -34 -19 0 -35 4 -35 9 0 24 14 41 35 41 13 0 26 -7 29
-16z"/>
<path d="M6394 2050 c-12 -5 -25 -21 -28 -36 -4 -15 -15 -33 -24 -40 -16 -12
-16 -13 1 -19 14 -6 17 -20 17 -76 0 -53 -4 -71 -15 -75 -28 -11 -15 -24 25
-24 38 0 52 12 30 25 -5 3 -10 37 -10 76 l0 69 30 0 30 0 0 -69 c0 -39 -4 -73
-10 -76 -21 -13 -9 -25 25 -25 19 0 35 5 35 10 0 6 -4 10 -10 10 -5 0 -11 39
-12 88 l-3 87 -42 3 c-34 2 -43 7 -43 22 0 16 18 30 40 30 4 0 10 -10 14 -22
5 -22 6 -22 23 -5 17 18 17 19 -6 38 -25 21 -35 22 -67 9z"/>
<path d="M6251 2031 c-6 -11 -11 -26 -11 -34 0 -8 -7 -17 -15 -21 -8 -3 -15
-10 -15 -16 0 -5 7 -10 15 -10 12 0 15 -14 15 -69 0 -52 -4 -70 -15 -75 -30
-11 -14 -26 30 -26 44 0 60 12 30 24 -11 4 -15 22 -15 76 0 56 3 70 15 70 8 0
15 7 15 15 0 8 -7 15 -16 15 -10 0 -14 7 -12 22 4 25 28 37 28 14 0 -9 7 -16
16 -16 10 0 14 7 12 23 -4 31 -62 37 -77 8z"/>
<path d="M6715 2031 c-8 -15 3 -31 21 -31 9 0 14 7 12 17 -4 20 -24 28 -33 14z"/>
<path d="M7177 2033 c-4 -3 -7 -15 -7 -26 0 -11 -8 -26 -17 -33 -17 -12 -17
-13 0 -19 14 -6 17 -20 17 -75 0 -87 5 -100 41 -100 23 0 32 6 40 27 11 31 9
63 -6 66 -5 1 -11 -13 -13 -30 -2 -21 -9 -33 -18 -33 -11 0 -14 16 -14 70 0
63 2 70 20 70 11 0 20 7 20 15 0 8 -9 15 -20 15 -12 0 -20 7 -20 18 0 22 -14
44 -23 35z"/>
<path d="M7577 2034 c-14 -15 -6 -34 14 -34 14 0 19 5 17 17 -3 18 -20 27 -31
17z"/>
<path d="M8207 2033 c-4 -3 -7 -15 -7 -26 0 -11 -8 -26 -17 -33 -17 -12 -17
-13 0 -19 14 -6 17 -20 17 -75 0 -87 5 -100 41 -100 23 0 32 6 40 27 12 32 9
55 -8 61 -9 2 -13 -7 -13 -27 0 -21 -5 -31 -15 -31 -12 0 -15 14 -15 70 0 63
2 70 20 70 11 0 20 7 20 15 0 8 -9 15 -20 15 -12 0 -20 7 -20 18 0 22 -14 44
-23 35z"/>
<path d="M6071 1954 c-29 -37 -31 -110 -5 -151 20 -32 77 -32 98 -1 20 28 20
48 1 48 -8 0 -15 -7 -15 -15 0 -8 -9 -19 -21 -25 -25 -14 -45 -1 -51 35 -5 23
-2 24 46 27 46 3 51 5 54 29 4 33 -32 79 -63 79 -14 0 -32 -11 -44 -26z m73
-20 c11 -29 6 -34 -29 -34 -19 0 -35 4 -35 9 0 24 14 41 35 41 13 0 26 -7 29
-16z"/>
<path d="M6530 1940 c0 -42 16 -56 22 -17 2 17 11 23 36 25 17 2 32 1 32 -3 0
-3 -23 -35 -50 -72 -28 -36 -49 -70 -47 -77 2 -6 32 -12 70 -14 l67 -3 0 46
c0 25 -4 45 -10 45 -5 0 -10 -11 -10 -25 0 -29 -16 -38 -55 -33 l-26 3 50 65
c70 89 68 100 -14 100 l-65 0 0 -40z"/>
<path d="M6697 1974 c-12 -12 -8 -24 8 -24 12 0 15 -14 15 -69 0 -52 -4 -70
-15 -75 -29 -11 -15 -26 25 -26 40 0 49 7 30 26 -5 5 -10 45 -12 89 -3 72 -5
80 -23 83 -12 2 -24 0 -28 -4z"/>
<path d="M6821 1954 c-26 -33 -29 -118 -5 -152 21 -30 77 -30 98 0 20 28 20
48 1 48 -8 0 -15 -7 -15 -15 0 -8 -10 -19 -21 -26 -24 -13 -42 0 -53 38 -7 20
-3 22 46 25 48 3 53 5 56 29 4 33 -32 79 -63 79 -14 0 -32 -11 -44 -26z m73
-20 c11 -29 6 -34 -29 -34 -19 0 -35 4 -35 9 0 24 14 41 35 41 13 0 26 -7 29
-16z"/>
<path d="M6955 1972 c-10 -10 -5 -22 10 -22 12 0 15 -14 15 -69 0 -52 -4 -70
-15 -75 -29 -11 -15 -26 25 -26 38 0 52 12 30 25 -12 7 -13 115 -1 133 4 8 19
12 32 10 22 -3 24 -8 27 -67 2 -36 -2 -69 -7 -74 -20 -20 -11 -27 29 -27 40 0
53 13 25 24 -11 4 -15 22 -15 68 0 90 -14 106 -90 105 -33 0 -62 -2 -65 -5z"/>
<path d="M7411 1954 c-29 -37 -31 -110 -5 -151 20 -32 77 -32 98 -1 20 28 20
48 1 48 -8 0 -15 -7 -15 -15 0 -8 -10 -19 -21 -26 -24 -13 -42 0 -53 38 -7 20
-3 22 46 25 48 3 53 5 56 29 4 33 -32 79 -63 79 -14 0 -32 -11 -44 -26z m73
-20 c11 -29 6 -34 -29 -34 -19 0 -35 4 -35 9 0 24 14 41 35 41 13 0 26 -7 29
-16z"/>
<path d="M7557 1974 c-12 -12 -8 -24 8 -24 12 0 15 -14 15 -70 0 -54 -4 -72
-15 -76 -28 -11 -15 -24 25 -24 40 0 49 7 30 26 -5 5 -10 45 -12 89 -3 72 -5
80 -23 83 -12 2 -24 0 -28 -4z"/>
<path d="M7655 1972 c-10 -10 -5 -22 10 -22 12 0 15 -14 15 -69 0 -52 -4 -70
-15 -75 -29 -11 -15 -26 25 -26 38 0 52 12 30 25 -12 7 -13 115 -1 133 4 8 19
12 32 10 22 -3 24 -8 27 -67 2 -36 -2 -69 -7 -74 -20 -20 -11 -27 29 -27 40 0
53 13 25 24 -11 4 -15 22 -15 68 0 90 -14 106 -90 105 -33 0 -62 -2 -65 -5z"/>
<path d="M7879 1959 c-37 -37 -17 -81 42 -94 36 -8 48 -31 26 -52 -20 -20 -53
-9 -61 22 -10 38 -26 30 -26 -13 l0 -38 50 -2 c44 -2 52 1 67 24 15 23 15 29
2 52 -8 14 -30 31 -49 37 -41 14 -49 48 -13 53 17 3 26 -3 33 -22 14 -38 30
-32 30 12 0 37 -1 38 -41 39 -28 1 -46 -4 -60 -18z"/>
<path d="M8041 1954 c-29 -37 -31 -110 -5 -151 20 -32 77 -32 98 -1 20 28 20
48 1 48 -8 0 -15 -7 -15 -15 0 -8 -10 -19 -21 -26 -24 -13 -42 0 -53 38 -7 20
-3 22 46 25 48 3 53 5 56 29 4 33 -32 79 -63 79 -14 0 -32 -11 -44 -26z m73
-20 c11 -29 6 -34 -29 -34 -19 0 -35 4 -35 9 0 24 14 41 35 41 13 0 26 -7 29
-16z"/>
<path d="M8320 1940 c0 -42 16 -56 22 -17 2 17 11 23 36 25 17 2 32 1 32 -3 0
-3 -23 -35 -50 -72 -28 -36 -49 -70 -47 -77 2 -6 32 -12 70 -14 l67 -3 0 46
c0 25 -4 45 -10 45 -5 0 -10 -11 -10 -25 0 -29 -16 -38 -55 -33 l-26 3 50 65
c70 89 68 100 -14 100 l-65 0 0 -40z"/>
<path d="M8511 1954 c-29 -37 -31 -110 -5 -151 29 -45 114 -19 114 34 0 20
-28 15 -35 -6 -13 -42 -55 -33 -69 16 -7 20 -3 22 46 25 48 3 53 5 56 29 4 33
-32 79 -63 79 -14 0 -32 -11 -44 -26z m73 -20 c11 -29 6 -34 -29 -34 -19 0
-35 4 -35 9 0 24 14 41 35 41 13 0 26 -7 29 -16z"/>
<path d="M8645 1972 c-10 -10 -5 -22 10 -22 12 0 15 -14 15 -69 0 -52 -4 -70
-15 -75 -29 -11 -15 -26 25 -26 38 0 52 12 30 25 -12 7 -13 115 -1 133 4 8 19
12 32 10 22 -3 24 -8 27 -67 2 -36 -2 -69 -7 -74 -20 -20 -11 -27 29 -27 40 0
53 13 25 24 -11 4 -15 22 -15 68 0 90 -14 106 -90 105 -33 0 -62 -2 -65 -5z"/>
</g>
</svg>
